<?xml version="1.0" encoding="utf-8"?>
<svg version="1.1" xmlns:xlink="http://www.w3.org/1999/xlink" width="12px" height="12px" viewBox="285 604.5  12 12" xmlns="http://www.w3.org/2000/svg">
  <path d="M 291 604.5  C 294.36 604.5  297 607.14  297 610.5  C 297 613.86  294.36 616.5  291 616.5  C 287.64 616.5  285 613.86  285 610.5  C 285 607.14  287.64 604.5  291 604.5  Z " fill-rule="nonzero" fill="#00ffff" stroke="none" />
  <path d="M 291 605  C 294.08 605  296.5 607.42  296.5 610.5  C 296.5 613.58  294.08 616  291 616  C 287.92 616  285.5 613.58  285.5 610.5  C 285.5 607.42  287.92 605  291 605  Z " stroke-width="1" stroke="#797979" fill="none" />
  <path d="M 291 613.5  C 289.32 613.5  288 612.18  288 610.5  C 288 608.82  289.32 607.5  291 607.5  C 292.68 607.5  294 608.82  294 610.5  C 294 612.18  292.68 613.5  291 613.5  " fill-rule="nonzero" fill="#797979" stroke="none" />
</svg>