<?xml version="1.0" encoding="utf-8"?>
<svg version="1.1" xmlns:xlink="http://www.w3.org/1999/xlink" width="12px" height="12px" viewBox="285 581.5  12 12" xmlns="http://www.w3.org/2000/svg">
  <path d="M 291 581.5  C 294.36 581.5  297 584.14  297 587.5  C 297 590.86  294.36 593.5  291 593.5  C 287.64 593.5  285 590.86  285 587.5  C 285 584.14  287.64 581.5  291 581.5  Z " fill-rule="nonzero" fill="#027db4" stroke="none" />
  <path d="M 291 582  C 294.08 582  296.5 584.42  296.5 587.5  C 296.5 590.58  294.08 593  291 593  C 287.92 593  285.5 590.58  285.5 587.5  C 285.5 584.42  287.92 582  291 582  Z " stroke-width="1" stroke="#797979" fill="none" />
  <path d="M 291 590.5  C 289.32 590.5  288 589.18  288 587.5  C 288 585.82  289.32 584.5  291 584.5  C 292.68 584.5  294 585.82  294 587.5  C 294 589.18  292.68 590.5  291 590.5  " fill-rule="nonzero" fill="#797979" stroke="none" />
</svg>