<?xml version="1.0" encoding="utf-8"?>
<svg version="1.1" xmlns:xlink="http://www.w3.org/1999/xlink" width="25px" height="25px" viewBox="286 635.5  25 25" xmlns="http://www.w3.org/2000/svg">
  <path d="M 298.5 635.5  C 305.5 635.5  311 641  311 648  C 311 655  305.5 660.5  298.5 660.5  C 291.5 660.5  286 655  286 648  C 286 641  291.5 635.5  298.5 635.5  Z " fill-rule="nonzero" fill="#ffff80" stroke="none" />
  <path d="M 298.5 636  C 305.22 636  310.5 641.28  310.5 648  C 310.5 654.72  305.22 660  298.5 660  C 291.78 660  286.5 654.72  286.5 648  C 286.5 641.28  291.78 636  298.5 636  Z " stroke-width="1" stroke="#797979" fill="none" />
  <path d="M 298.5 654.25  C 295 654.25  292.25 651.5  292.25 648  C 292.25 644.5  295 641.75  298.5 641.75  C 302 641.75  304.75 644.5  304.75 648  C 304.75 651.5  302 654.25  298.5 654.25  " fill-rule="nonzero" fill="#797979" stroke="none" />
</svg>